<svg width="12px" height="12px" viewBox="10 11 12 12" version="1.1" xmlns="http://www.w3.org/2000/svg" xmlns:xlink="http://www.w3.org/1999/xlink">
    <!-- Generator: Sketch 40.3 (33839) - http://www.bohemiancoding.com/sketch -->
    <desc>Created with Sketch.</desc>
    <defs></defs>
    <path d="M21.5,16.5 L16.5,16.5 L16.5,11.5005 C16.5,11.224 16.287,11 16.0105,11 C15.7345,11 15.5105,11.2235 15.5105,11.4995 L15.506,16.5 L10.5,16.5 C10.2235,16.5 10,16.7235 10,17 C10,17.276 10.2235,17.5 10.5,17.5 L15.505,17.5 L15.5,22.4995 C15.4995,22.7755 15.723,22.9995 15.999,23 L15.9995,23 C16.2755,23 16.4995,22.7765 16.5,22.5005 L16.5,17.5 L21.5,17.5 C21.776,17.5 22,17.276 22,17 C22,16.7235 21.776,16.5 21.5,16.5" id="Page-1" stroke="none" fill="#27AE60" fill-rule="evenodd"></path>
</svg>
