<svg version="1.1"
	 xmlns="http://www.w3.org/2000/svg" xmlns:xlink="http://www.w3.org/1999/xlink" xmlns:a="http://ns.adobe.com/AdobeSVGViewerExtensions/3.0/"
	 x="0px" y="0px" width="45.9px" height="45.8px" viewBox="0 0 45.9 45.8" style="enable-background:new 0 0 45.9 45.8;"
	 xml:space="preserve">
<path d="M43.4,2.4c-3.2-3.2-8.9-3.2-12.1,0c-1.7,1.7-2.6,4.1-2.5,6.4l-13.2,4.4c-0.3-0.4-0.6-0.8-0.9-1.2c-3.3-3.3-8.8-3.3-12.1,0
	C0.9,13.6,0,15.8,0,18.1c0,2.3,0.9,4.4,2.5,6.1c1.7,1.7,3.9,2.5,6.1,2.5c1.4,0,2.7-0.4,4-1l7.6,7.6c-0.7,1.2-1,2.6-1,4
	c0,2.3,0.9,4.4,2.5,6.1c1.6,1.6,3.8,2.5,6.1,2.5s4.4-0.9,6.1-2.5c3.3-3.3,3.3-8.8,0-12.1c-0.4-0.4-0.8-0.7-1.2-0.9L37.1,17
	c0.1,0,0.2-0.1,0.3-0.1c0,0,0,0,0,0c2.3,0,4.4-0.8,6.1-2.4c1.6-1.6,2.5-3.7,2.5-6S45,4.1,43.4,2.4z M28.8,28.9
	c-2.1-0.2-4.2,0.2-5.9,1.4l-7.3-7.3c1.2-1.8,1.7-3.9,1.4-6l12.8-4.3c0.4,0.7,0.8,1.3,1.4,1.9c0.6,0.6,1.2,1,1.9,1.4L28.8,28.9z"/>
</svg>
